<svg id="Layer_1" data-name="Layer 1" xmlns="http://www.w3.org/2000/svg" xmlns:xlink="http://www.w3.org/1999/xlink" viewBox="0 0 812.44 71.87"><defs><style>.cls-1{fill:#f6f9fb;}.cls-2{fill:url(#linear-gradient);}</style><linearGradient id="linear-gradient" x1="753.14" y1="260.52" x2="872.31" y2="141.36" gradientUnits="userSpaceOnUse"><stop offset="0" stop-color="#50c6db"/><stop offset="1" stop-color="#6ec280"/></linearGradient></defs><path class="cls-1" d="M135.4,179.72a16.49,16.49,0,0,0-12.14-5.88c-4.24,0-9.53,1.44-9.53,6.84,0,4.53,4,6,10.5,8,9.25,3,21.19,6.93,21.19,20.52,0,15.7-12.62,22.74-26.11,22.74-9.73,0-19.56-3.57-25.53-9.83l10.79-11a20.17,20.17,0,0,0,14.74,7.23c5,0,9.45-1.93,9.45-7.42,0-5.2-5.21-6.84-14.17-9.73-8.67-2.79-17.44-7.23-17.44-19.56,0-15.12,13.68-21.39,26.4-21.39,7.71,0,16.38,2.89,22.36,8.39Z" transform="translate(-93.78 -160.16)"/><path class="cls-1" d="M228.57,230.2H212.28L198.8,184.05h-.29L185,230.2H168.64L149.27,162H167l10.79,45.38h.29L190.22,162h17.15l12.24,45.38h.28l11-45.38H248Z" transform="translate(-93.78 -160.16)"/><path class="cls-1" d="M255.06,230.2V162h16.57V230.2Z" transform="translate(-93.78 -160.16)"/><path class="cls-1" d="M310.36,204.48h-8.19V230.2H285.69V162h25.05c14.94,0,26.69,5.39,26.69,21C337.43,198.79,324.62,204.48,310.36,204.48Zm-1-29.2h-7.22v16.09h6.94c6.16,0,11.85-1.83,11.85-8.28S315.27,175.28,309.39,175.28Z" transform="translate(-93.78 -160.16)"/><path class="cls-1" d="M347.35,230.2V162h45.86v14h-30v12.81h28.33V202H363.25v14.17H395V230.2Z" transform="translate(-93.78 -160.16)"/><path class="cls-1" d="M456.46,201.3v28.9H440V201.3L414.36,162H434.3l14.55,25.24L463.4,162h19.27Z" transform="translate(-93.78 -160.16)"/><path class="cls-1" d="M518.6,232c-21.29,0-37.09-14.64-37.09-36.22,0-21.88,15.8-35.65,37.09-35.65s37.19,13.77,37.19,35.65C555.79,217.39,540,232,518.6,232Zm0-57c-11.56,0-19.46,8.87-19.46,20.82,0,12.33,8,21.19,19.46,21.19s19.56-8.86,19.56-21.19C538.16,183.86,530.16,175,518.6,175Z" transform="translate(-93.78 -160.16)"/><path class="cls-1" d="M595.1,232c-17.93,0-29.1-11.17-29.1-27.55V162h16.38v41.14c0,7.32,3.56,14.07,12.81,14.07S608,210.45,608,203.13V162h16.47v42.49C624.48,220.86,612.92,232,595.1,232Z" transform="translate(-93.78 -160.16)"/><path class="cls-1" d="M674.29,230.2l-14.74-27.07H654V230.2H637.77V162h26c13.1,0,26.11,5,26.11,20.62,0,9.15-5.4,15.7-14.16,18.4l17.82,29.19Zm-11.66-54.92h-8.77v15.9h7.81c5.3,0,11.94-1.35,11.94-8.28C673.61,176.54,667.55,175.28,662.63,175.28Z" transform="translate(-93.78 -160.16)"/><path class="cls-2" d="M892.25,194.45v-.21c6.62-2.17,11.17-7.2,11.17-14.71,0-13.81-12.65-17.56-23.23-17.56H853v68.24h27.19c13,0,26-5,26-19.84C906.22,201.38,900,195.82,892.25,194.45Zm-23.33-19.36H877c6.93,0,10.47,2,10.47,6.66,0,4.82-3.54,7.41-9.73,7.41h-8.84Zm9.26,41.84h-9.26V201.27h9.16c7,0,11.63,1.85,11.63,7.57C889.71,215.45,883.37,216.93,878.18,216.93ZM805,160.17c-21.32,0-37.13,13.75-37.13,35.65,0,21.59,15.81,36.19,37.13,36.19s37.14-14.6,37.14-36.19C842.1,173.92,826.34,160.17,805,160.17ZM805,217c-11.48,0-19.46-8.89-19.46-21.22,0-11.95,7.88-20.84,19.46-20.84s19.52,8.89,19.52,20.84C824.48,208.15,816.39,217,805,217ZM757.35,162v44.91c0,10.79-3.86,25.13-22.48,25.13-11.43,0-19.63-6.61-22.12-16l14.55-4.92c.85,3.55,3.33,6,6.83,6,5.39,0,6.66-4.13,6.66-10.1V162Z" transform="translate(-93.78 -160.16)"/></svg>