<svg id="Layer_1" data-name="Layer 1" xmlns="http://www.w3.org/2000/svg" xmlns:xlink="http://www.w3.org/1999/xlink" viewBox="0 0 812.44 71.87"><defs><style>.cls-1{fill:#191919;}.cls-2{fill:url(#linear-gradient);}</style><linearGradient id="linear-gradient" x1="758.05" y1="402.03" x2="877.22" y2="282.86" gradientUnits="userSpaceOnUse"><stop offset="0" stop-color="#50c6db"/><stop offset="1" stop-color="#6ec280"/></linearGradient></defs><path class="cls-1" d="M140.31,321.22a16.52,16.52,0,0,0-12.14-5.87c-4.24,0-9.54,1.44-9.54,6.84,0,4.53,4.05,6,10.5,8,9.25,3,21.2,6.94,21.2,20.53,0,15.7-12.62,22.73-26.11,22.73-9.73,0-19.56-3.56-25.53-9.82l10.79-11a20.17,20.17,0,0,0,14.74,7.23c5,0,9.44-1.93,9.44-7.42,0-5.2-5.2-6.84-14.16-9.73-8.67-2.79-17.44-7.23-17.44-19.56,0-15.12,13.68-21.39,26.4-21.39,7.71,0,16.38,2.89,22.35,8.38Z" transform="translate(-98.69 -301.67)"/><path class="cls-1" d="M233.48,371.71H217.19L203.7,325.56h-.29l-13.48,46.15H173.55L154.18,303.5h17.73l10.79,45.37H183l12.14-45.37h17.15l12.24,45.37h.28l11-45.37h17.15Z" transform="translate(-98.69 -301.67)"/><path class="cls-1" d="M260,371.71V303.5h16.57v68.21Z" transform="translate(-98.69 -301.67)"/><path class="cls-1" d="M315.27,346h-8.19v25.72H290.6V303.5h25c14.94,0,26.69,5.39,26.69,21C342.34,340.3,329.53,346,315.27,346Zm-1-29.2h-7.22v16.09H314c6.16,0,11.85-1.83,11.85-8.28S320.18,316.79,314.3,316.79Z" transform="translate(-98.69 -301.67)"/><path class="cls-1" d="M352.26,371.71V303.5h45.86v14h-30v12.81h28.32v13.2H368.16v14.16h31.7v14.07Z" transform="translate(-98.69 -301.67)"/><path class="cls-1" d="M461.37,342.81v28.9H444.89v-28.9L419.26,303.5h19.95l14.55,25.24L468.3,303.5h19.27Z" transform="translate(-98.69 -301.67)"/><path class="cls-1" d="M523.51,373.54c-21.29,0-37.1-14.64-37.1-36.23,0-21.87,15.81-35.64,37.1-35.64s37.19,13.77,37.19,35.64C560.7,358.9,544.9,373.54,523.51,373.54Zm0-57C512,316.5,504,325.37,504,337.31c0,12.34,8,21.2,19.47,21.2s19.55-8.86,19.55-21.2C543.06,325.37,535.07,316.5,523.51,316.5Z" transform="translate(-98.69 -301.67)"/><path class="cls-1" d="M600,373.54c-17.92,0-29.09-11.18-29.09-27.55V303.5h16.38v41.14c0,7.32,3.56,14.06,12.81,14.06s12.81-6.74,12.81-14.06V303.5h16.48V346C629.39,362.36,617.83,373.54,600,373.54Z" transform="translate(-98.69 -301.67)"/><path class="cls-1" d="M679.2,371.71l-14.74-27.07h-5.59v27.07H642.68V303.5h26c13.1,0,26.11,5,26.11,20.62,0,9.15-5.4,15.7-14.17,18.4l17.83,29.19Zm-11.66-54.92h-8.77v15.9h7.81c5.3,0,11.94-1.35,11.94-8.29C678.52,318,672.45,316.79,667.54,316.79Z" transform="translate(-98.69 -301.67)"/><path class="cls-2" d="M897.16,336v-.22c6.61-2.16,11.16-7.19,11.16-14.7,0-13.81-12.64-17.57-23.22-17.57H857.91v68.25H885.1c13,0,26-5,26-19.84C911.13,342.89,904.94,337.33,897.16,336Zm-23.33-19.37h8.1c6.93,0,10.47,2,10.47,6.67,0,4.81-3.54,7.41-9.73,7.41h-8.84Zm9.26,41.85h-9.26V342.78H883c7,0,11.64,1.85,11.64,7.57C894.62,357,888.27,358.44,883.09,358.44Zm-73.22-56.77c-21.32,0-37.14,13.76-37.14,35.66,0,21.59,15.82,36.19,37.14,36.19S847,358.92,847,337.33C847,315.43,831.24,301.67,809.87,301.67Zm0,56.88c-11.48,0-19.47-8.89-19.47-21.22,0-11.95,7.89-20.84,19.47-20.84s19.52,8.89,19.52,20.84C829.39,349.66,821.3,358.55,809.87,358.55Zm-47.61-55.08v44.92c0,10.79-3.86,25.13-22.48,25.13-11.43,0-19.63-6.62-22.12-16l14.55-4.92c.85,3.54,3.33,6,6.83,6,5.39,0,6.66-4.13,6.66-10.11v-45Z" transform="translate(-98.69 -301.67)"/></svg>